<svg width="346" height="124" viewBox="0 0 346 124" fill="none" xmlns="http://www.w3.org/2000/svg">
<path d="M73.7316 107.757V0H71.0146L63.3573 3.2111C61.5665 2.16132 59.1582 1.35855 56.1941 0.802785C53.3535 0.247018 50.5747 0 47.9194 0C41.2502 0 35.1985 1.6673 29.7644 4.94014C24.4537 8.21299 20.1928 13.1531 17.0435 19.7606C13.8324 26.368 12.2886 34.6428 12.2886 44.5848H0.0617367V53.3535H12.2886V107.757C12.2886 110.412 11.1153 112.388 8.76876 113.623C6.5457 114.92 3.64336 115.661 0 115.846V121.898H38.5331V115.846C34.9515 115.661 31.9257 114.92 29.6409 113.623C27.4178 112.327 26.3062 110.412 26.3062 107.757V53.3535H50.8217V44.5848H26.3062V36.4953C26.3062 26.4298 28.0971 19.1431 31.7404 14.6969C35.4455 10.2508 39.8917 8.02773 45.0788 8.02773C49.0927 8.02773 52.5508 9.32452 55.4531 11.9798C58.2937 14.5117 59.7757 18.2785 59.7757 23.2804V107.757C59.7757 110.412 58.6024 112.388 56.2559 113.623C54.0328 114.92 51.1305 115.661 47.4871 115.846V121.898H86.0202V115.846C82.4386 115.661 79.4128 114.92 77.128 113.623C74.8432 112.388 73.7316 110.412 73.7316 107.757Z" fill="#111111"/>
<path d="M258.123 113.005C250.651 113.005 245.094 109.979 245.094 103.125V53.291H269.115V44.5222H245.094V26.3672H239.351C235.028 36.0622 226.63 44.337 219.467 48.4743V53.2292H231.076V108.435C231.076 116.71 237.931 123.379 249.355 123.379C256.024 123.379 264.175 121.465 269.547 117.945V111.276C266.398 112.326 261.52 113.005 258.123 113.005Z" fill="#111111"/>
<path d="M216.008 101.212C209.771 108.19 202.299 110.599 194.827 110.599C178.772 110.599 167.78 96.3958 167.78 78.1172C167.78 77.4997 167.78 76.944 167.78 76.3882H218.663C218.663 61.4443 210.08 42.9805 189.517 42.9805C174.758 42.9805 162.655 53.7253 157.776 69.225H149.563C147.217 56.1336 138.386 42.9805 121.096 42.9805C101.829 42.9805 87.0703 61.259 87.0703 84.6629C87.0703 107.573 102.014 123.505 121.775 123.505C135.484 123.505 145.673 115.23 151.045 104.238L147.525 101.212C141.288 108.19 133.816 110.599 126.344 110.599C110.289 110.599 99.2972 96.3958 99.2972 78.1172C99.2972 57.9862 110.412 50.4524 118.564 50.4524C129.247 50.4524 134.619 59.7152 134.804 69.225H108.313V76.3882H156.171C155.738 79.0435 155.553 81.8223 155.553 84.6629C155.553 107.573 170.497 123.505 190.258 123.505C203.966 123.505 214.155 115.23 219.528 104.238L216.008 101.212ZM187.046 50.4524C197.73 50.4524 203.102 59.7152 203.287 69.225H168.644C171.3 55.7013 180.254 50.4524 187.046 50.4524Z" fill="#111111"/>
<path d="M304.878 84.4077H310.078L322.482 116.434C323.055 117.881 323.823 118.936 324.758 119.599C325.692 120.263 326.762 120.639 327.953 120.715V122.885H311.917V120.715C314.374 120.564 316.001 120.142 316.815 119.419C317.629 118.695 317.704 117.505 317.056 115.847L314.404 109.019H300.96L298.353 115.847C297.705 117.505 297.78 118.695 298.594 119.419C299.408 120.142 301.035 120.579 303.492 120.715V122.885H289.34V120.715C290.53 120.639 291.601 120.278 292.535 119.63C293.469 118.982 294.238 117.911 294.811 116.434L306.084 87.5425L304.833 84.3926L304.878 84.4077ZM302.015 106.291H313.394L307.652 91.5515L302.015 106.291Z" fill="#111111"/>
<path d="M345.362 120.715V122.885H329.326V120.715C331.09 120.64 332.461 120.323 333.411 119.736C334.36 119.163 334.842 118.168 334.842 116.751V91.0696C334.842 89.668 334.36 88.6733 333.411 88.0855C332.446 87.5128 331.09 87.1812 329.326 87.1058V84.9355H345.362V87.1058C343.599 87.1812 342.227 87.4977 341.278 88.0855C340.313 88.6582 339.846 89.6529 339.846 91.0696V116.751C339.846 118.153 340.328 119.148 341.278 119.736C342.227 120.308 343.599 120.64 345.362 120.715Z" fill="#111111"/>
</svg>
